<?xml version="1.0" encoding="UTF-8" standalone="no"?>
<!-- Created with Inkscape (http://www.inkscape.org/) -->

<svg
   width="105.49133mm"
   height="37.546898mm"
   viewBox="0 0 105.49133 37.546898"
   version="1.1"
   id="svg5"
   xml:space="preserve"
   xmlns="http://www.w3.org/2000/svg"
   xmlns:svg="http://www.w3.org/2000/svg"><defs
     id="defs2"><clipPath
       clipPathUnits="userSpaceOnUse"
       id="clipPath330"><path
         d="M 0,595.28 H 841.89 V 0 H 0 Z"
         id="path328" /></clipPath></defs><g
     id="layer1"
     transform="translate(-44.50981,-59.442468)"><g
       id="g298"
       transform="matrix(0.35277777,0,0,-0.35277777,-52.712145,190.19484)"><g
         id="g324"><g
           id="g326"
           clip-path="url(#clipPath330)"><g
             id="g400"
             transform="translate(613.1813,225.8503)" /><g
             id="g406"
             transform="translate(463.1739,326.6885)"><path
               d="m 0,0 h 0.139 c 10.82,0 19.973,-7.432 22.685,-17.573 H -22.913 C -20.031,-7.461 -10.829,-0.033 0,0 m 111.29,36.152 c 0.768,3.43 -1.363,6.861 -4.822,7.638 -3.43,0.779 -6.861,-1.396 -7.639,-4.847 C 96.971,30.66 92.833,19.124 86.442,7.406 82.464,0.127 77.646,-7.201 71.985,-13.993 L 49.51,10.688 c -2.377,2.59 -6.404,2.779 -9.034,0.4 C 37.902,8.724 37.683,4.664 40.057,2.061 l 23.162,-25.376 c -0.826,-0.788 -1.686,-1.597 -2.567,-2.373 C 42.101,-42.014 22.247,-49.729 6.66,-49.68 c -10.627,0 -19.044,3.369 -24.837,9.623 -2.441,2.632 -4.059,5.834 -4.904,9.699 h 46.332 c 0,0 2.675,0.161 4.569,0.433 2.124,0.316 3.322,1.047 3.322,1.047 2.397,1.263 3.607,3.248 4.194,4.944 0.65,1.737 0.752,3.149 0.752,4.219 0,0.914 -0.102,1.535 -0.13,1.792 C 33.123,-0.49 18.176,12.742 0.087,12.779 h -0.189 c -20.152,-0.128 -36.431,-16.63 -36.481,-36.854 v -0.128 c 0.098,-9.165 2.882,-17.917 8.992,-24.53 8.558,-9.264 20.834,-13.751 34.124,-13.751 H 6.66 c 19.678,0.047 42.001,9.263 62.464,27.196 0.922,0.833 1.793,1.71 2.713,2.53 l 24.41,-26.761 c 1.285,-1.401 3.017,-2.087 4.722,-2.087 1.547,0 3.092,0.537 4.311,1.674 2.611,2.377 2.788,6.423 0.406,9.006 l -25.029,27.432 c 6.751,7.905 12.403,16.413 16.981,24.778 6.972,12.784 11.497,25.189 13.652,34.868 M -149.784,1.655 c 7.585,0 14.33,-3.402 18.952,-8.919 2.287,-2.673 6.314,-3.039 9.009,-0.746 2.709,2.274 3.049,6.3 0.763,9.013 -6.886,8.206 -17.24,13.423 -28.724,13.423 -10.442,0 -20.004,-4.339 -26.787,-11.307 -6.807,-6.941 -11.037,-16.574 -11.013,-27.153 -0.024,-10.546 4.206,-20.183 11.013,-27.123 6.825,-6.968 16.345,-11.327 26.787,-11.327 h 0.039 c 11.476,0 21.799,5.237 28.685,13.442 2.286,2.714 1.946,6.733 -0.763,9.015 -2.695,2.271 -6.722,1.932 -9.009,-0.778 -4.622,-5.472 -11.367,-8.875 -18.952,-8.875 -6.894,0 -13.113,2.813 -17.643,7.457 -4.577,4.641 -7.389,11.038 -7.389,18.189 0,7.182 2.812,13.564 7.389,18.22 4.53,4.622 10.749,7.469 17.643,7.469 m 87.415,-43.318 c -4.338,-4.407 -10.219,-7.092 -16.749,-7.092 -6.531,0 -12.414,2.685 -16.741,7.092 -4.352,4.416 -7.03,10.478 -7.03,17.273 0,6.788 2.678,12.847 7.03,17.299 4.327,4.387 10.21,7.091 16.741,7.091 6.53,0 12.411,-2.704 16.749,-7.091 4.306,-4.452 6.987,-10.511 7.018,-17.299 -0.031,-6.795 -2.712,-12.857 -7.018,-17.273 m -16.749,54.442 c -10.112,0 -19.307,-4.216 -25.874,-10.955 -6.593,-6.704 -10.676,-16.025 -10.676,-26.214 0,-10.19 4.083,-19.518 10.676,-26.218 6.567,-6.739 15.762,-10.93 25.874,-10.93 h 0.021 c 10.096,0 19.278,4.191 25.847,10.93 6.608,6.7 10.674,16.028 10.674,26.218 0,10.189 -4.066,19.51 -10.674,26.214 -6.569,6.739 -15.751,10.955 -25.868,10.955"
               style="fill:#e4007f;fill-opacity:1;fill-rule:nonzero;stroke:none"
               id="path408" /></g></g></g></g></g></svg>
