<?xml version="1.0" encoding="utf-8"?>
<!-- Generator: Adobe Illustrator 27.2.0, SVG Export Plug-In . SVG Version: 6.00 Build 0)  -->
<svg version="1.1" id="레이어_1" xmlns="http://www.w3.org/2000/svg" xmlns:xlink="http://www.w3.org/1999/xlink" x="0px"
	 y="0px" viewBox="0 0 246.34 62.95" style="enable-background:new 0 0 246.34 62.95;" xml:space="preserve">
<style type="text/css">
	.st0{fill:#F0B781;}
	.st1{fill:#EB9C52;}
	.st2{fill:#E26E0F;}
	.st3{fill:#FFFFFF;}
</style>
<g>
	<g>
		<path class="st0" d="M25.63,32.27c-0.9-8.18,7.68-14.74,19.17-14.66c11.48,0.09,21.52,6.79,22.42,14.97
			c0.9,8.18-7.67,14.75-19.16,14.66C36.57,47.16,26.53,40.45,25.63,32.27 M69.35,34.81c-1.03-10.14-12.59-18.46-25.81-18.57
			c-13.21-0.11-23.09,8.03-22.05,18.18c1.04,10.15,12.6,18.47,25.81,18.57C60.51,53.1,70.38,44.96,69.35,34.81"/>
		<path class="st1" d="M49.39,53.2c-6.51,6.8-16.95,7.36-23.33,1.25c-6.38-6.11-6.28-16.57,0.24-23.37
			c6.51-6.8,16.96-7.36,23.34-1.26C56.02,35.93,55.91,46.4,49.39,53.2 M25.28,30.87c-7.57,7.91-7.69,20.07-0.28,27.17
			c7.41,7.1,19.56,6.44,27.13-1.47c7.57-7.9,7.69-20.06,0.28-27.16C44.99,22.31,32.85,22.96,25.28,30.87"/>
		<path class="st2" d="M25.97,5.42c13.54-5.08,26.93,0.06,29.9,11.46c2.98,11.4-5.58,24.77-19.12,29.84
			C23.21,51.8,9.83,46.66,6.85,35.25C3.87,23.85,12.43,10.49,25.97,5.42 M13.4,9.78C-0.65,20.9-4.22,37.01,5.41,45.77
			c9.63,8.75,28.83,6.84,42.88-4.28c14.04-11.12,17.62-27.24,7.98-35.99C46.64-3.27,27.44-1.34,13.4,9.78"/>
	</g>
	<g>
		<path class="st3" d="M94.62,24.42H78.87V21.9h15.75V24.42z M86.74,35.49c-1.99,0-3.63-0.5-4.86-1.52c-1.26-1-1.87-2.2-1.87-3.6
			c0-1.38,0.61-2.58,1.87-3.6c1.23-1,2.87-1.49,4.86-1.49c1.99,0,3.6,0.5,4.86,1.49c1.23,1.02,1.87,2.23,1.87,3.6
			c0,1.41-0.64,2.61-1.87,3.6C90.34,34.99,88.73,35.49,86.74,35.49z M87.94,41.29h13.62v2.69H87.09c-3.13,0-4.68-1.44-4.68-4.36
			v-2.81h3.51v2.4C85.92,40.61,86.6,41.29,87.94,41.29z M82.7,18.45h8.08v2.55H82.7V18.45z M86.74,33.03c0.91,0,1.7-0.23,2.37-0.76
			c0.64-0.5,0.97-1.14,0.97-1.9c0-0.73-0.32-1.35-0.97-1.87c-0.67-0.5-1.46-0.76-2.37-0.76c-0.94,0-1.7,0.26-2.34,0.76
			c-0.67,0.53-1,1.14-1,1.87c0,0.76,0.32,1.41,1,1.9C85.04,32.79,85.81,33.03,86.74,33.03z M101.44,25.33h3.63v2.75h-3.63v8.87
			h-3.48V18.89h3.48V25.33z"/>
		<path class="st3" d="M114.2,35.34c-1.26-0.21-2.31-0.67-3.19-1.41c-1.23-1-1.82-2.17-1.82-3.57c0-1.38,0.61-2.58,1.87-3.6
			c1.23-1,2.87-1.49,4.86-1.49s3.6,0.5,4.86,1.49c1.23,1.02,1.87,2.23,1.87,3.6c0,1.41-0.61,2.58-1.82,3.57
			c-0.88,0.7-1.9,1.17-3.13,1.41v2.66h3.89c3.51,0,5.27-1.35,5.27-4.07V18.89h3.48v8.43h3.63v2.78h-3.63v13.94h-3.48v-4.71
			c-1.05,0.94-2.63,1.4-4.68,1.4h-14.76v-2.72h6.76V35.34z M123.75,24.42h-15.75V21.9h15.75V24.42z M111.89,18.45h8.08v2.55h-8.08
			V18.45z M115.93,33.03c0.91,0,1.7-0.23,2.37-0.76c0.64-0.5,0.97-1.14,0.97-1.9c0-0.73-0.32-1.35-0.97-1.87
			c-0.67-0.5-1.46-0.76-2.37-0.76c-0.94,0-1.7,0.26-2.34,0.76c-0.67,0.53-0.99,1.14-0.99,1.87c0,0.76,0.32,1.41,0.99,1.9
			C114.23,32.79,114.99,33.03,115.93,33.03z"/>
		<path class="st3" d="M143.5,26.15c1.14-1.35,1.76-2.81,1.84-4.39h-7.94v-2.66h9.37c1.52,0,2.26,0.7,2.2,2.11
			c-0.12,2.81-1.14,5.18-3.13,7.17c-2.31,2.28-5.33,3.63-9.02,3.98v-2.63C139.64,29.28,141.86,28.08,143.5,26.15z M160.13,39.74
			h-15.81v0.32c0,0.85,0.53,1.26,1.58,1.26h14.29v2.66h-14.7c-3.1,0-4.66-1.41-4.66-4.27v-2.58h15.81v-1.49h-15.81V33h18.56
			c0.47,0,0.73,0.26,0.73,0.73V39.74z M156.71,18.89h3.43v12.74h-3.43v-5.07h-2.31v5.07h-3.37V18.89h3.37v4.95h2.31V18.89z"/>
		<path class="st3" d="M178.22,20.61v9.4h-9.25v3.92c0,1.41,0.62,2.11,1.9,2.11h9.34v2.72h-10.07c-3.1,0-4.66-1.52-4.66-4.63v-6.82
			h9.25v-5.3h-9.25V19.3h11.42C177.78,19.3,178.22,19.73,178.22,20.61z M184.66,18.89h3.48v25.18h-3.48v-14.2h-4.74v-2.81h4.74
			V18.89z"/>
		<path class="st3" d="M206.88,20.61v9.4h-9.81v3.92c0,1.41,0.62,2.11,1.9,2.11h7.32c3.75,0,5.62-1.35,5.62-4.07V18.89h3.51v25.15
			h-3.51v-6.88c-0.91,1.08-2.58,1.61-5.04,1.61h-8.64c-3.1,0-4.66-1.52-4.66-4.63v-6.82h9.81v-5.3h-9.81V19.3h11.98
			C206.44,19.3,206.88,19.73,206.88,20.61z"/>
		<path class="st3" d="M220.69,28.9c0-3.08,0.65-5.51,1.96-7.29c1.29-1.76,3.13-2.66,5.56-2.66c2.4,0,4.28,0.91,5.59,2.66
			c1.29,1.79,1.93,4.22,1.93,7.29c0,3.1-0.64,5.53-1.93,7.29c-1.32,1.79-3.19,2.66-5.59,2.66c-2.43,0-4.27-0.88-5.56-2.66
			C221.34,34.43,220.69,32,220.69,28.9z M224.17,28.93c0,2.37,0.32,4.16,1,5.36c0.64,1.23,1.67,1.84,3.02,1.84
			c1.35,0,2.37-0.61,3.07-1.84c0.64-1.2,1-2.99,1-5.36s-0.35-4.19-1-5.42c-0.7-1.23-1.73-1.84-3.07-1.84
			c-1.35,0-2.37,0.62-3.02,1.84C224.5,24.74,224.17,26.56,224.17,28.93z M246.34,30.07h-3.75v13.97h-3.48V18.89h3.48v8.37h3.75
			V30.07z"/>
	</g>
</g>
</svg>
