<svg xmlns="http://www.w3.org/2000/svg" viewBox="0 0 361.51 98.27"><g id="ba849c62-720c-4f11-b37e-8634acbfe3e6" data-name="레이어 2"><path d="M89.58,75.77h14.89V22.15H89.58ZM160.44,52.6a1,1,0,0,1-1,1,1,1,0,0,1-.76-.37L139.56,26.37c-1.73-2.4-4.26-5.4-9.6-5.48-7.56-.12-9.79,4.77-9.79,9.73V75.78h7.22v-39a1,1,0,0,1,1-1,1,1,0,0,1,.77.38l27.59,37a7.39,7.39,0,0,0,4.95,2.94c5.6.49,6-3.12,6-6.09V22.15h-7.2ZM27.71,75.77H42.59V22.15H27.71ZM76.23,22.15H67L42.88,48.92,59.24,70.56c1.31,1.76,3.54,5.2,11.87,5.21h9.71L56.6,44Zm170.1,44.66V50.34h20.84V44.15H246.33v-13c0-1.58,1.59-2.86,3.54-2.86h21.07l-4.6-6.1H239.46a7.74,7.74,0,0,0-8,7.44V68.33a7.74,7.74,0,0,0,8,7.44h33v-6.1H249.87C247.92,69.67,246.33,68.39,246.33,66.81Zm68.08-21.13,19.45-23.53h-8.92l-14.87,18-10-12.77h0c-1.35-1.76-3.31-5.2-12.24-5.21h-9.69l22.8,29.07L280.62,75.77h8.93l15.71-19,10.82,13.8c1.35,1.76,3.3,5.2,12.23,5.21H338ZM177.24,28.25h15.29V75.77h14.89V28.25h15.29v-6.1H177.24Z" style="fill:#3e79be"/><line x1="0.17" x2="360.36" style="fill:none"/><rect y="0.17" width="361.51" height="98.1" style="fill:none"/></g></svg>